M48
;Layer_Color=9474304
;FILE_FORMAT=4:3
METRIC,LZ
;TYPE=PLATED
T1F00S00C0.900
T2F00S00C1.200
T3F00S00C3.000
%
T01
X0037973Y003048
Y003302
Y003556
Y00381
X0040513
Y003556
Y003302
X0043053
X0045593
X0048133
X0050673
X0053213
X0055753
X0058293
X0060833
X0063373
X0065913
X0068453
X0070993
X0073533
X0076073
X0078613
Y003048
X0076073
X0073533
X0070993
X0068453
X0065913
X0063373
X0060833
X0058293
X0055753
X0053213
X0050673
X0048133
X0045593
X0043053
X0040513
X0043053Y003556
X0045593
X0048133
X0050673
X0053213
X0055753
X0058293
X0060833
X0063373
X0065913
X0068453
X0070993
X0073533
X0076073
X0078613
Y00381
X0076073
X0073533
X0070993
X0068453
X0065913
X0063373
X0060833
X0058293
X0055753
X0053213
X0050673
X0048133
X0045593
X0043053
X0081153
Y003556
Y003302
X0083693
X0086233
Y003048
X0083693
X0081153
X0083693Y003556
X0086233
Y00381
X0083693
Y004064
Y004318
X0081153
Y004572
X0083693
X0086233
Y004318
Y004064
X00889Y0043053
Y0045593
Y0048133
Y0050673
Y0053213
Y0055753
X009144
X009398
Y0053213
X009144
Y0050673
X009398
Y0048133
X009144
Y0045593
X009398
Y0043053
X009144
X0086233Y004826
X0083693
X0081153
Y00508
X0083693
X0086233
Y005334
X0083693
X0081153
Y005588
Y005842
Y006096
Y00635
X0083693
X0086233
Y006096
X0083693
Y005842
X0086233
Y005588
X0083693
Y006604
X0081153
Y006858
X0083693
X0086233
Y006604
X0081153Y004064
X0078613
Y004318
X0076073
X0073533
X0070993
X0068453
X0065913
X0063373
X0060833
X0058293
X0055753
X0053213
X0050673
X0048133
X0045593
X0043053
X0040513
Y004572
X0043053
X0045593
X0048133
X0050673
X0053213
X0055753
X0058293
X0060833
X0063373
X0065913
X0068453
X0070993
X0073533
X0076073
X0078613
Y004826
X0076073
X0073533
X0070993
X0068453
X0065913
X0063373
X0060833
X0058293
X0055753
X0053213
X0050673
X0048133
X0045593
X0043053
X0040513
Y00508
X0043053
X0045593
X0048133
X0050673
X0053213
X0055753
X0058293
X0060833
X0063373
X0065913
X0068453
X0070993
X0073533
X0076073
X0078613
Y005334
X0076073
X0073533
X0070993
X0068453
X0065913
X0063373
X0060833
X0058293
X0055753
X0053213
X0050673
X0048133
X0045593
X0043053
X0040513
Y005588
Y005842
Y006096
Y00635
X0043053
X0045593
X0048133
X0050673
X0053213
X0055753
X0058293
X0060833
X0063373
X0065913
X0068453
X0070993
X0073533
X0076073
X0078613
Y006096
X0076073
X0073533
X0070993
X0068453
X0065913
X0063373
X0060833
X0058293
X0055753
X0053213
X0050673
X0048133
X0045593
X0043053
Y005842
X0045593
X0048133
X0050673
X0053213
X0055753
X0058293
X0060833
X0063373
X0065913
X0068453
X0070993
X0073533
X0076073
X0078613
Y005588
X0076073
X0073533
X0070993
X0068453
X0065913
X0063373
X0060833
X0058293
X0055753
X0053213
X0050673
X0048133
X0045593
X0043053
Y006604
X0040513
Y006858
X0043053
X0045593
Y006604
X0048133
Y006858
X0050673
Y006604
X0053213
Y006858
X0055753
Y006604
X0058293
Y006858
X0060833
Y006604
X0063373
Y006858
X0065913
Y006604
X0068453
Y006858
X0070993
Y006604
X0073533
Y006858
X0076073
Y006604
X0078613
Y006858
X0076073Y004064
X0073533
X0070993
X0068453
X0065913
X0063373
X0060833
X0058293
X0055753
X0053213
X0050673
X0048133
X0045593
X0043053
X0040513
X0037973
Y004318
X003556Y0043053
Y0045593
Y0048133
Y0050673
Y0053213
Y0055753
X0037973Y005588
Y005842
Y006096
Y00635
Y006604
Y006858
Y005334
Y00508
Y004826
Y004572
X003302Y0045593
Y0048133
Y0050673
Y0053213
Y0055753
X003048
Y0053213
Y0050673
Y0048133
Y0045593
Y0043053
X003302
T02
X009652Y0043053
Y0045593
Y0048133
Y0050673
Y0053213
Y0055753
X002794
Y0053213
Y0050673
Y0048133
Y0045593
Y0043053
T03
X002856Y0028574
X0095884Y002859
X0095885Y0070485
X0028574Y00705
M30
