G04*
G04 #@! TF.GenerationSoftware,Altium Limited,Altium Designer,20.0.13 (296)*
G04*
G04 Layer_Physical_Order=2*
G04 Layer_Color=16711680*
%FSLAX43Y43*%
%MOMM*%
G71*
G01*
G75*
%ADD13C,1.500*%
%ADD14C,4.000*%
D13*
X33528Y43180D02*
D03*
Y45720D02*
D03*
Y48260D02*
D03*
Y50800D02*
D03*
Y53340D02*
D03*
Y55880D02*
D03*
X90932Y43180D02*
D03*
Y45720D02*
D03*
Y48260D02*
D03*
Y50800D02*
D03*
Y53340D02*
D03*
Y55880D02*
D03*
X38100Y27940D02*
D03*
Y30480D02*
D03*
X40640Y27940D02*
D03*
Y30480D02*
D03*
X43180Y27940D02*
D03*
Y30480D02*
D03*
X45720Y27940D02*
D03*
Y30480D02*
D03*
X48260Y27940D02*
D03*
Y30480D02*
D03*
X50800Y27940D02*
D03*
Y30480D02*
D03*
X53340Y27940D02*
D03*
Y30480D02*
D03*
X55880Y27940D02*
D03*
Y30480D02*
D03*
X58420Y27940D02*
D03*
Y30480D02*
D03*
X60960Y27940D02*
D03*
Y30480D02*
D03*
X63500Y27940D02*
D03*
Y30480D02*
D03*
X66040Y27940D02*
D03*
Y30480D02*
D03*
X68580Y27940D02*
D03*
Y30480D02*
D03*
X71120Y27940D02*
D03*
Y30480D02*
D03*
X73660Y27940D02*
D03*
Y30480D02*
D03*
X76200Y27940D02*
D03*
Y30480D02*
D03*
X78740Y27940D02*
D03*
Y30480D02*
D03*
X81280Y27940D02*
D03*
Y30480D02*
D03*
X83820Y27940D02*
D03*
Y30480D02*
D03*
X86360Y27940D02*
D03*
Y30480D02*
D03*
X38100Y42672D02*
D03*
Y45212D02*
D03*
X40640Y42672D02*
D03*
Y45212D02*
D03*
X43180Y42672D02*
D03*
Y45212D02*
D03*
X45720Y42672D02*
D03*
Y45212D02*
D03*
X48260Y42672D02*
D03*
Y45212D02*
D03*
X50800Y42672D02*
D03*
Y45212D02*
D03*
X53340Y42672D02*
D03*
Y45212D02*
D03*
X55880Y42672D02*
D03*
Y45212D02*
D03*
X58420Y42672D02*
D03*
Y45212D02*
D03*
X60960Y42672D02*
D03*
Y45212D02*
D03*
X63500Y42672D02*
D03*
Y45212D02*
D03*
X66040Y42672D02*
D03*
Y45212D02*
D03*
X68580Y42672D02*
D03*
Y45212D02*
D03*
X71120Y42672D02*
D03*
Y45212D02*
D03*
X73660Y42672D02*
D03*
Y45212D02*
D03*
X76200Y42672D02*
D03*
Y45212D02*
D03*
X78740Y42672D02*
D03*
Y45212D02*
D03*
X81280Y42672D02*
D03*
Y45212D02*
D03*
X83820Y42672D02*
D03*
Y45212D02*
D03*
X86360Y42672D02*
D03*
Y45212D02*
D03*
X38100Y48260D02*
D03*
Y50800D02*
D03*
X40640Y48260D02*
D03*
Y50800D02*
D03*
X43180Y48260D02*
D03*
Y50800D02*
D03*
X45720Y48260D02*
D03*
Y50800D02*
D03*
X48260Y48260D02*
D03*
Y50800D02*
D03*
X50800Y48260D02*
D03*
Y50800D02*
D03*
X53340Y48260D02*
D03*
Y50800D02*
D03*
X55880Y48260D02*
D03*
Y50800D02*
D03*
X58420Y48260D02*
D03*
Y50800D02*
D03*
X60960Y48260D02*
D03*
Y50800D02*
D03*
X63500Y48260D02*
D03*
Y50800D02*
D03*
X66040Y48260D02*
D03*
Y50800D02*
D03*
X68580Y48260D02*
D03*
Y50800D02*
D03*
X71120Y48260D02*
D03*
Y50800D02*
D03*
X73660Y48260D02*
D03*
Y50800D02*
D03*
X76200Y48260D02*
D03*
Y50800D02*
D03*
X78740Y48260D02*
D03*
Y50800D02*
D03*
X81280Y48260D02*
D03*
Y50800D02*
D03*
X83820Y48260D02*
D03*
Y50800D02*
D03*
X86360Y48260D02*
D03*
Y50800D02*
D03*
Y65532D02*
D03*
X83820D02*
D03*
X81280D02*
D03*
X78740D02*
D03*
X76200D02*
D03*
X73660D02*
D03*
X71120D02*
D03*
X68580D02*
D03*
X66040D02*
D03*
X63500D02*
D03*
X60960D02*
D03*
X58420D02*
D03*
X55880D02*
D03*
X53340D02*
D03*
X50800D02*
D03*
X48260D02*
D03*
X45720D02*
D03*
X43180D02*
D03*
X40640D02*
D03*
X38100D02*
D03*
X86360Y39624D02*
D03*
X83820D02*
D03*
X81280D02*
D03*
X78740D02*
D03*
X76200D02*
D03*
X73660D02*
D03*
X71120D02*
D03*
X68580D02*
D03*
X66040D02*
D03*
X63500D02*
D03*
X60960D02*
D03*
X58420D02*
D03*
X55880D02*
D03*
X53340D02*
D03*
X50800D02*
D03*
X48260D02*
D03*
X45720D02*
D03*
X43180D02*
D03*
X40640D02*
D03*
X38100D02*
D03*
X86360Y62484D02*
D03*
X83820D02*
D03*
X81280D02*
D03*
X78740D02*
D03*
X76200D02*
D03*
X73660D02*
D03*
X71120D02*
D03*
X68580D02*
D03*
X66040D02*
D03*
X63500D02*
D03*
X60960D02*
D03*
X58420D02*
D03*
X55880D02*
D03*
X53340D02*
D03*
X50800D02*
D03*
X48260D02*
D03*
X45720D02*
D03*
X43180D02*
D03*
X40640D02*
D03*
X38100D02*
D03*
X86360Y33528D02*
D03*
X83820D02*
D03*
X81280D02*
D03*
X78740D02*
D03*
X76200D02*
D03*
X73660D02*
D03*
X71120D02*
D03*
X68580D02*
D03*
X66040D02*
D03*
X63500D02*
D03*
X60960D02*
D03*
X58420D02*
D03*
X55880D02*
D03*
X53340D02*
D03*
X50800D02*
D03*
X48260D02*
D03*
X45720D02*
D03*
X43180D02*
D03*
X40640D02*
D03*
X38100D02*
D03*
X86360Y59436D02*
D03*
X83820D02*
D03*
X81280D02*
D03*
X78740D02*
D03*
X76200D02*
D03*
X73660D02*
D03*
X71120D02*
D03*
X68580D02*
D03*
X66040D02*
D03*
X63500D02*
D03*
X60960D02*
D03*
X58420D02*
D03*
X55880D02*
D03*
X53340D02*
D03*
X50800D02*
D03*
X48260D02*
D03*
X45720D02*
D03*
X43180D02*
D03*
X40640D02*
D03*
X38100D02*
D03*
X86360Y36576D02*
D03*
X83820D02*
D03*
X81280D02*
D03*
X78740D02*
D03*
X76200D02*
D03*
X73660D02*
D03*
X71120D02*
D03*
X68580D02*
D03*
X66040D02*
D03*
X63500D02*
D03*
X60960D02*
D03*
X58420D02*
D03*
X55880D02*
D03*
X53340D02*
D03*
X50800D02*
D03*
X48260D02*
D03*
X45720D02*
D03*
X43180D02*
D03*
X40640D02*
D03*
X38100D02*
D03*
Y53848D02*
D03*
Y56388D02*
D03*
X40640Y53848D02*
D03*
Y56388D02*
D03*
X43180Y53848D02*
D03*
Y56388D02*
D03*
X45720Y53848D02*
D03*
Y56388D02*
D03*
X48260Y53848D02*
D03*
Y56388D02*
D03*
X50800Y53848D02*
D03*
Y56388D02*
D03*
X53340Y53848D02*
D03*
Y56388D02*
D03*
X55880Y53848D02*
D03*
Y56388D02*
D03*
X58420Y53848D02*
D03*
Y56388D02*
D03*
X60960Y53848D02*
D03*
Y56388D02*
D03*
X63500Y53848D02*
D03*
Y56388D02*
D03*
X66040Y53848D02*
D03*
Y56388D02*
D03*
X68580Y53848D02*
D03*
Y56388D02*
D03*
X71120Y53848D02*
D03*
Y56388D02*
D03*
X73660Y53848D02*
D03*
Y56388D02*
D03*
X76200Y53848D02*
D03*
Y56388D02*
D03*
X78740Y53848D02*
D03*
Y56388D02*
D03*
X81280Y53848D02*
D03*
Y56388D02*
D03*
X83820Y53848D02*
D03*
Y56388D02*
D03*
X86360Y53848D02*
D03*
Y56388D02*
D03*
X38100Y68580D02*
D03*
Y71120D02*
D03*
X40640Y68580D02*
D03*
Y71120D02*
D03*
X43180Y68580D02*
D03*
Y71120D02*
D03*
X45720Y68580D02*
D03*
Y71120D02*
D03*
X48260Y68580D02*
D03*
Y71120D02*
D03*
X50800Y68580D02*
D03*
Y71120D02*
D03*
X53340Y68580D02*
D03*
Y71120D02*
D03*
X55880Y68580D02*
D03*
Y71120D02*
D03*
X58420Y68580D02*
D03*
Y71120D02*
D03*
X60960Y68580D02*
D03*
Y71120D02*
D03*
X63500Y68580D02*
D03*
Y71120D02*
D03*
X66040Y68580D02*
D03*
Y71120D02*
D03*
X68580Y68580D02*
D03*
Y71120D02*
D03*
X71120Y68580D02*
D03*
Y71120D02*
D03*
X73660Y68580D02*
D03*
Y71120D02*
D03*
X76200Y68580D02*
D03*
Y71120D02*
D03*
X78740Y68580D02*
D03*
Y71120D02*
D03*
X81280Y68580D02*
D03*
Y71120D02*
D03*
X83820Y68580D02*
D03*
Y71120D02*
D03*
X86360Y68580D02*
D03*
Y71120D02*
D03*
X27940Y55880D02*
D03*
X30480D02*
D03*
X27940Y53340D02*
D03*
X30480D02*
D03*
X27940Y50800D02*
D03*
X30480D02*
D03*
X27940Y48260D02*
D03*
X30480D02*
D03*
X27940Y45720D02*
D03*
X30480D02*
D03*
X27940Y43180D02*
D03*
X30480D02*
D03*
X93980Y55880D02*
D03*
X96520D02*
D03*
X93980Y53340D02*
D03*
X96520D02*
D03*
X93980Y50800D02*
D03*
X96520D02*
D03*
X93980Y48260D02*
D03*
X96520D02*
D03*
X93980Y45720D02*
D03*
X96520D02*
D03*
X93980Y43180D02*
D03*
X96520D02*
D03*
D14*
X28560Y28574D02*
D03*
X28574Y70500D02*
D03*
X95884Y28590D02*
D03*
X95885Y70485D02*
D03*
M02*
