M48
;Layer_Color=9474304
;FILE_FORMAT=4:3
METRIC,LZ
;TYPE=PLATED
T1F00S00C0.900
T2F00S00C3.000
%
T01
X00381Y002794
Y003048
Y0033528
Y0036576
Y0039624
X004064
X004318
X004572
X004826
X00508
X005334
X005588
X005842
X006096
X00635
X006604
X006858
X007112
X007366
X00762
X007874
Y0036576
X00762
X007366
X007112
X006858
X006604
X00635
X006096
X005842
X005588
X005334
X00508
X004826
X004572
X004318
X004064
Y0033528
X004318
X004572
X004826
X00508
X005334
X005588
X005842
X006096
X00635
X006604
X006858
X007112
X007366
X00762
X007874
Y003048
X00762
X007366
X007112
X006858
X006604
X00635
X006096
X005842
X005588
X005334
X00508
X004826
X004572
X004318
X004064
Y002794
X004318
X004572
X004826
X00508
X005334
X005588
X005842
X006096
X00635
X006604
X006858
X007112
X007366
X00762
X007874
X008128
Y003048
X008382
Y002794
X008636
Y003048
Y0033528
X008382
X008128
Y0036576
X008382
X008636
Y0039624
X008382
X008128
Y0042672
Y0045212
X008382
Y0042672
X008636
Y0045212
Y004826
X008382
X008128
Y00508
X008382
X008636
Y0053848
X008382
X008128
Y0056388
X008382
X008636
Y0059436
X008382
X008128
Y0062484
X008382
X008636
Y0065532
X008382
X008128
Y006858
Y007112
X008382
Y006858
X008636
Y007112
X0090932Y005588
Y005334
Y00508
Y004826
Y004572
Y004318
X009398
Y004572
Y004826
Y00508
Y005334
Y005588
X009652
Y005334
Y00508
Y004826
Y004572
Y004318
X007874Y0042672
X00762
X007366
X007112
X006858
X006604
X00635
X006096
X005842
X005588
X005334
X00508
X004826
X004572
X004318
X004064
Y0045212
X004318
X004572
X004826
X00508
X005334
X005588
X005842
X006096
X00635
X006604
X006858
X007112
X007366
X00762
X007874
Y004826
X00762
X007366
X007112
X006858
X006604
X00635
X006096
X005842
X005588
X005334
X00508
X004826
X004572
X004318
X004064
Y00508
X004318
X004572
X004826
X00508
X005334
X005588
X005842
X006096
X00635
X006604
X006858
X007112
X007366
X00762
X007874
Y0053848
X00762
X007366
X007112
X006858
X006604
X00635
X006096
X005842
X005588
X005334
X00508
X004826
X004572
X004318
X004064
Y0056388
X004318
X004572
X004826
X00508
X005334
X005588
X005842
X006096
X00635
X006604
X006858
X007112
X007366
X00762
X007874
Y0059436
X00762
X007366
X007112
X006858
X006604
X00635
X006096
X005842
X005588
X005334
X00508
X004826
X004572
X004318
X004064
Y0062484
X004318
X004572
X004826
X00508
X005334
X005588
X005842
X006096
X00635
X006604
X006858
X007112
X007366
X00762
X007874
Y0065532
X00762
X007366
X007112
X006858
X006604
X00635
X006096
X005842
X005588
X005334
X00508
X004826
X004572
X004318
X004064
Y006858
Y007112
X004318
Y006858
X004572
Y007112
X004826
Y006858
X00508
Y007112
X005334
Y006858
X005588
Y007112
X005842
Y006858
X006096
Y007112
X00635
Y006858
X006604
Y007112
X006858
Y006858
X007112
Y007112
X007366
Y006858
X00762
Y007112
X007874
Y006858
X00381
Y007112
Y0065532
Y0062484
Y0059436
Y0056388
Y0053848
Y00508
Y004826
Y0045212
Y0042672
X0033528Y004318
Y004572
Y004826
Y00508
Y005334
Y005588
X003048
X002794
Y005334
X003048
Y00508
X002794
Y004826
X003048
Y004572
X002794
Y004318
X003048
T02
X002856Y0028574
X0095884Y002859
X0095885Y0070485
X0028574Y00705
M30
