G04*
G04 #@! TF.GenerationSoftware,Altium Limited,Altium Designer,20.0.13 (296)*
G04*
G04 Layer_Physical_Order=1*
G04 Layer_Color=255*
%FSLAX43Y43*%
%MOMM*%
G71*
G01*
G75*
%ADD14C,0.508*%
%ADD15C,2.000*%
%ADD16C,2.000*%
%ADD17C,1.500*%
%ADD18C,4.000*%
D14*
X93980Y43053D02*
X96520D01*
X93980Y45593D02*
X96520D01*
X93980Y48133D02*
X96520D01*
X93980Y50673D02*
X96520D01*
X93980Y53213D02*
X96520D01*
X93980Y55753D02*
X96520D01*
X27940Y43053D02*
X30480D01*
X27940Y45593D02*
X30480D01*
X27940Y48133D02*
X30480D01*
X27940Y50673D02*
X30480D01*
X27940Y53213D02*
X30480D01*
X27940Y55753D02*
X30480D01*
X37973Y68580D02*
X86233D01*
X37973Y66040D02*
X86233D01*
X33020Y43053D02*
X35560D01*
X30480D02*
X33020D01*
Y45593D02*
X35560D01*
X30480D02*
X33020D01*
Y48133D02*
X35560D01*
X30480D02*
X33020D01*
Y50673D02*
X35560D01*
X30480D02*
X33020D01*
Y53213D02*
X35560D01*
X30480D02*
X33020D01*
Y55753D02*
X35560D01*
X30480D02*
X33020D01*
X83693Y30480D02*
X86233D01*
X81153D02*
X83693D01*
X78613D02*
X81153D01*
X76073D02*
X78613D01*
X73533D02*
X76073D01*
X70993D02*
X73533D01*
X68453D02*
X70993D01*
X65913D02*
X68453D01*
X63373D02*
X65913D01*
X60833D02*
X63373D01*
X58293D02*
X60833D01*
X55753D02*
X58293D01*
X53213D02*
X55753D01*
X50673D02*
X53213D01*
X48133D02*
X50673D01*
X45593D02*
X48133D01*
X43053D02*
X45593D01*
X40513D02*
X43053D01*
X37973D02*
X40513D01*
X83693Y33020D02*
X86233D01*
X81153D02*
X83693D01*
X78613D02*
X81153D01*
X76073D02*
X78613D01*
X73533D02*
X76073D01*
X70993D02*
X73533D01*
X68453D02*
X70993D01*
X65913D02*
X68453D01*
X63373D02*
X65913D01*
X60833D02*
X63373D01*
X58293D02*
X60833D01*
X55753D02*
X58293D01*
X53213D02*
X55753D01*
X50673D02*
X53213D01*
X48133D02*
X50673D01*
X45593D02*
X48133D01*
X43053D02*
X45593D01*
X40513D02*
X43053D01*
X37973D02*
X40513D01*
X83693Y38100D02*
Y40640D01*
Y35560D02*
Y38100D01*
X81153D02*
Y40640D01*
Y35560D02*
Y38100D01*
X78613D02*
Y40640D01*
Y35560D02*
Y38100D01*
X76073D02*
Y40640D01*
Y35560D02*
Y38100D01*
X73533D02*
Y40640D01*
Y35560D02*
Y38100D01*
X70993D02*
Y40640D01*
Y35560D02*
Y38100D01*
X68453D02*
Y40640D01*
Y35560D02*
Y38100D01*
X65913D02*
Y40640D01*
Y35560D02*
Y38100D01*
X63373D02*
Y40640D01*
Y35560D02*
Y38100D01*
X60833D02*
Y40640D01*
Y35560D02*
Y38100D01*
X58293D02*
Y40640D01*
Y35560D02*
Y38100D01*
X55753D02*
Y40640D01*
Y35560D02*
Y38100D01*
X53213D02*
Y40640D01*
Y35560D02*
Y38100D01*
X50673D02*
Y40640D01*
Y35560D02*
Y38100D01*
X48133D02*
Y40640D01*
Y35560D02*
Y38100D01*
X45593D02*
Y40640D01*
Y35560D02*
Y38100D01*
X43053D02*
Y40640D01*
Y35560D02*
Y38100D01*
X40513D02*
Y40640D01*
Y35560D02*
Y38100D01*
X37973D02*
Y40640D01*
Y35560D02*
Y38100D01*
X86233D02*
Y40640D01*
Y35560D02*
Y38100D01*
X83693Y55880D02*
X86233D01*
X81153D02*
X83693D01*
X78613D02*
X81153D01*
X76073D02*
X78613D01*
X73533D02*
X76073D01*
X70993D02*
X73533D01*
X68453D02*
X70993D01*
X65913D02*
X68453D01*
X63373D02*
X65913D01*
X60833D02*
X63373D01*
X58293D02*
X60833D01*
X55753D02*
X58293D01*
X53213D02*
X55753D01*
X50673D02*
X53213D01*
X48133D02*
X50673D01*
X45593D02*
X48133D01*
X43053D02*
X45593D01*
X40513D02*
X43053D01*
X37973D02*
X40513D01*
X83693Y53340D02*
X86233D01*
X81153D02*
X83693D01*
X78613D02*
X81153D01*
X76073D02*
X78613D01*
X73533D02*
X76073D01*
X70993D02*
X73533D01*
X68453D02*
X70993D01*
X65913D02*
X68453D01*
X63373D02*
X65913D01*
X60833D02*
X63373D01*
X58293D02*
X60833D01*
X55753D02*
X58293D01*
X53213D02*
X55753D01*
X50673D02*
X53213D01*
X48133D02*
X50673D01*
X45593D02*
X48133D01*
X43053D02*
X45593D01*
X40513D02*
X43053D01*
X37973D02*
X40513D01*
X83693Y45720D02*
X86233D01*
X81153D02*
X83693D01*
X78613D02*
X81153D01*
X76073D02*
X78613D01*
X73533D02*
X76073D01*
X70993D02*
X73533D01*
X68453D02*
X70993D01*
X65913D02*
X68453D01*
X63373D02*
X65913D01*
X60833D02*
X63373D01*
X58293D02*
X60833D01*
X55753D02*
X58293D01*
X53213D02*
X55753D01*
X50673D02*
X53213D01*
X48133D02*
X50673D01*
X45593D02*
X48133D01*
X43053D02*
X45593D01*
X40513D02*
X43053D01*
X37973D02*
X40513D01*
X83693Y43180D02*
X86233D01*
X81153D02*
X83693D01*
X78613D02*
X81153D01*
X76073D02*
X78613D01*
X73533D02*
X76073D01*
X70993D02*
X73533D01*
X68453D02*
X70993D01*
X65913D02*
X68453D01*
X63373D02*
X65913D01*
X60833D02*
X63373D01*
X58293D02*
X60833D01*
X55753D02*
X58293D01*
X53213D02*
X55753D01*
X50673D02*
X53213D01*
X48133D02*
X50673D01*
X45593D02*
X48133D01*
X43053D02*
X45593D01*
X40513D02*
X43053D01*
X37973D02*
X40513D01*
X91440Y43053D02*
X93980D01*
X88900D02*
X91440D01*
Y45593D02*
X93980D01*
X88900D02*
X91440D01*
Y48133D02*
X93980D01*
X88900D02*
X91440D01*
Y50673D02*
X93980D01*
X88900D02*
X91440D01*
Y53213D02*
X93980D01*
X88900D02*
X91440D01*
Y55753D02*
X93980D01*
X88900D02*
X91440D01*
X86233Y61087D02*
Y63754D01*
Y58420D02*
Y61087D01*
X83693D02*
Y63754D01*
Y58420D02*
Y61087D01*
X81153D02*
Y63754D01*
Y58420D02*
Y61087D01*
X78613D02*
Y63754D01*
Y58420D02*
Y61087D01*
X76073D02*
Y63754D01*
Y58420D02*
Y61087D01*
X73533D02*
Y63754D01*
Y58420D02*
Y61087D01*
X70993D02*
Y63754D01*
Y58420D02*
Y61087D01*
X68453D02*
Y63754D01*
Y58420D02*
Y61087D01*
X65913D02*
Y63754D01*
Y58420D02*
Y61087D01*
X63373D02*
Y63754D01*
Y58420D02*
Y61087D01*
X60833D02*
Y63754D01*
Y58420D02*
Y61087D01*
X58293D02*
Y63754D01*
Y58420D02*
Y61087D01*
X55753D02*
Y63754D01*
Y58420D02*
Y61087D01*
X53213D02*
Y63754D01*
Y58420D02*
Y61087D01*
X50673D02*
Y63754D01*
Y58420D02*
Y61087D01*
X48133D02*
Y63754D01*
Y58420D02*
Y61087D01*
X45593D02*
Y63754D01*
Y58420D02*
Y61087D01*
X43053D02*
Y63754D01*
Y58420D02*
Y61087D01*
X40513D02*
Y63754D01*
Y58420D02*
Y61087D01*
X37973D02*
Y63754D01*
Y58420D02*
Y61087D01*
D15*
X27940Y43053D02*
D03*
Y45593D02*
D03*
Y48133D02*
D03*
X96520Y43053D02*
D03*
Y45593D02*
D03*
Y48133D02*
D03*
Y50673D02*
D03*
Y53213D02*
D03*
Y55753D02*
D03*
D16*
X27940Y50673D02*
D03*
Y53213D02*
D03*
Y55753D02*
D03*
D17*
X86233Y33020D02*
D03*
Y30480D02*
D03*
X83693Y33020D02*
D03*
Y30480D02*
D03*
X81153Y33020D02*
D03*
Y30480D02*
D03*
X78613Y33020D02*
D03*
Y30480D02*
D03*
X76073Y33020D02*
D03*
Y30480D02*
D03*
X73533Y33020D02*
D03*
Y30480D02*
D03*
X70993Y33020D02*
D03*
Y30480D02*
D03*
X68453Y33020D02*
D03*
Y30480D02*
D03*
X65913Y33020D02*
D03*
Y30480D02*
D03*
X63373Y33020D02*
D03*
Y30480D02*
D03*
X60833Y33020D02*
D03*
Y30480D02*
D03*
X58293Y33020D02*
D03*
Y30480D02*
D03*
X55753Y33020D02*
D03*
Y30480D02*
D03*
X53213Y33020D02*
D03*
Y30480D02*
D03*
X50673Y33020D02*
D03*
Y30480D02*
D03*
X48133Y33020D02*
D03*
Y30480D02*
D03*
X45593Y33020D02*
D03*
Y30480D02*
D03*
X43053Y33020D02*
D03*
Y30480D02*
D03*
X40513Y33020D02*
D03*
Y30480D02*
D03*
X37973Y33020D02*
D03*
Y30480D02*
D03*
X35560Y43053D02*
D03*
Y45593D02*
D03*
Y48133D02*
D03*
Y50673D02*
D03*
Y53213D02*
D03*
Y55753D02*
D03*
X88900Y43053D02*
D03*
Y45593D02*
D03*
Y48133D02*
D03*
Y50673D02*
D03*
Y53213D02*
D03*
Y55753D02*
D03*
X37973Y43180D02*
D03*
Y45720D02*
D03*
X40513Y43180D02*
D03*
Y45720D02*
D03*
X43053Y43180D02*
D03*
Y45720D02*
D03*
X45593Y43180D02*
D03*
Y45720D02*
D03*
X48133Y43180D02*
D03*
Y45720D02*
D03*
X50673Y43180D02*
D03*
Y45720D02*
D03*
X53213Y43180D02*
D03*
Y45720D02*
D03*
X55753Y43180D02*
D03*
Y45720D02*
D03*
X58293Y43180D02*
D03*
Y45720D02*
D03*
X60833Y43180D02*
D03*
Y45720D02*
D03*
X63373Y43180D02*
D03*
Y45720D02*
D03*
X65913Y43180D02*
D03*
Y45720D02*
D03*
X68453Y43180D02*
D03*
Y45720D02*
D03*
X70993Y43180D02*
D03*
Y45720D02*
D03*
X73533Y43180D02*
D03*
Y45720D02*
D03*
X76073Y43180D02*
D03*
Y45720D02*
D03*
X78613Y43180D02*
D03*
Y45720D02*
D03*
X81153Y43180D02*
D03*
Y45720D02*
D03*
X83693Y43180D02*
D03*
Y45720D02*
D03*
X86233Y43180D02*
D03*
Y45720D02*
D03*
X37973Y48260D02*
D03*
Y50800D02*
D03*
X40513Y48260D02*
D03*
Y50800D02*
D03*
X43053Y48260D02*
D03*
Y50800D02*
D03*
X45593Y48260D02*
D03*
Y50800D02*
D03*
X48133Y48260D02*
D03*
Y50800D02*
D03*
X50673Y48260D02*
D03*
Y50800D02*
D03*
X53213Y48260D02*
D03*
Y50800D02*
D03*
X55753Y48260D02*
D03*
Y50800D02*
D03*
X58293Y48260D02*
D03*
Y50800D02*
D03*
X60833Y48260D02*
D03*
Y50800D02*
D03*
X63373Y48260D02*
D03*
Y50800D02*
D03*
X65913Y48260D02*
D03*
Y50800D02*
D03*
X68453Y48260D02*
D03*
Y50800D02*
D03*
X70993Y48260D02*
D03*
Y50800D02*
D03*
X73533Y48260D02*
D03*
Y50800D02*
D03*
X76073Y48260D02*
D03*
Y50800D02*
D03*
X78613Y48260D02*
D03*
Y50800D02*
D03*
X81153Y48260D02*
D03*
Y50800D02*
D03*
X83693Y48260D02*
D03*
Y50800D02*
D03*
X86233Y48260D02*
D03*
Y50800D02*
D03*
Y63500D02*
D03*
X83693D02*
D03*
X81153D02*
D03*
X78613D02*
D03*
X76073D02*
D03*
X73533D02*
D03*
X70993D02*
D03*
X68453D02*
D03*
X65913D02*
D03*
X63373D02*
D03*
X60833D02*
D03*
X58293D02*
D03*
X55753D02*
D03*
X53213D02*
D03*
X50673D02*
D03*
X48133D02*
D03*
X45593D02*
D03*
X43053D02*
D03*
X40513D02*
D03*
X37973D02*
D03*
X86233Y40640D02*
D03*
X83693D02*
D03*
X81153D02*
D03*
X78613D02*
D03*
X76073D02*
D03*
X73533D02*
D03*
X70993D02*
D03*
X68453D02*
D03*
X65913D02*
D03*
X63373D02*
D03*
X60833D02*
D03*
X58293D02*
D03*
X55753D02*
D03*
X53213D02*
D03*
X50673D02*
D03*
X48133D02*
D03*
X45593D02*
D03*
X43053D02*
D03*
X40513D02*
D03*
X37973D02*
D03*
X86233Y60960D02*
D03*
X83693D02*
D03*
X81153D02*
D03*
X78613D02*
D03*
X76073D02*
D03*
X73533D02*
D03*
X70993D02*
D03*
X68453D02*
D03*
X65913D02*
D03*
X63373D02*
D03*
X60833D02*
D03*
X58293D02*
D03*
X55753D02*
D03*
X53213D02*
D03*
X50673D02*
D03*
X48133D02*
D03*
X45593D02*
D03*
X43053D02*
D03*
X40513D02*
D03*
X37973D02*
D03*
X86233Y35560D02*
D03*
X83693D02*
D03*
X81153D02*
D03*
X78613D02*
D03*
X76073D02*
D03*
X73533D02*
D03*
X70993D02*
D03*
X68453D02*
D03*
X65913D02*
D03*
X63373D02*
D03*
X60833D02*
D03*
X58293D02*
D03*
X55753D02*
D03*
X53213D02*
D03*
X50673D02*
D03*
X48133D02*
D03*
X45593D02*
D03*
X43053D02*
D03*
X40513D02*
D03*
X37973D02*
D03*
X86233Y58420D02*
D03*
X83693D02*
D03*
X81153D02*
D03*
X78613D02*
D03*
X76073D02*
D03*
X73533D02*
D03*
X70993D02*
D03*
X68453D02*
D03*
X65913D02*
D03*
X63373D02*
D03*
X60833D02*
D03*
X58293D02*
D03*
X55753D02*
D03*
X53213D02*
D03*
X50673D02*
D03*
X48133D02*
D03*
X45593D02*
D03*
X43053D02*
D03*
X40513D02*
D03*
X37973D02*
D03*
X86233Y38100D02*
D03*
X83693D02*
D03*
X81153D02*
D03*
X78613D02*
D03*
X76073D02*
D03*
X73533D02*
D03*
X70993D02*
D03*
X68453D02*
D03*
X65913D02*
D03*
X63373D02*
D03*
X60833D02*
D03*
X58293D02*
D03*
X55753D02*
D03*
X53213D02*
D03*
X50673D02*
D03*
X48133D02*
D03*
X45593D02*
D03*
X43053D02*
D03*
X40513D02*
D03*
X37973D02*
D03*
Y53340D02*
D03*
Y55880D02*
D03*
X40513Y53340D02*
D03*
Y55880D02*
D03*
X43053Y53340D02*
D03*
Y55880D02*
D03*
X45593Y53340D02*
D03*
Y55880D02*
D03*
X48133Y53340D02*
D03*
Y55880D02*
D03*
X50673Y53340D02*
D03*
Y55880D02*
D03*
X53213Y53340D02*
D03*
Y55880D02*
D03*
X55753Y53340D02*
D03*
Y55880D02*
D03*
X58293Y53340D02*
D03*
Y55880D02*
D03*
X60833Y53340D02*
D03*
Y55880D02*
D03*
X63373Y53340D02*
D03*
Y55880D02*
D03*
X65913Y53340D02*
D03*
Y55880D02*
D03*
X68453Y53340D02*
D03*
Y55880D02*
D03*
X70993Y53340D02*
D03*
Y55880D02*
D03*
X73533Y53340D02*
D03*
Y55880D02*
D03*
X76073Y53340D02*
D03*
Y55880D02*
D03*
X78613Y53340D02*
D03*
Y55880D02*
D03*
X81153Y53340D02*
D03*
Y55880D02*
D03*
X83693Y53340D02*
D03*
Y55880D02*
D03*
X86233Y53340D02*
D03*
Y55880D02*
D03*
X37973Y66040D02*
D03*
Y68580D02*
D03*
X40513Y66040D02*
D03*
Y68580D02*
D03*
X43053Y66040D02*
D03*
Y68580D02*
D03*
X45593Y66040D02*
D03*
Y68580D02*
D03*
X48133Y66040D02*
D03*
Y68580D02*
D03*
X50673Y66040D02*
D03*
Y68580D02*
D03*
X53213Y66040D02*
D03*
Y68580D02*
D03*
X55753Y66040D02*
D03*
Y68580D02*
D03*
X58293Y66040D02*
D03*
Y68580D02*
D03*
X60833Y66040D02*
D03*
Y68580D02*
D03*
X63373Y66040D02*
D03*
Y68580D02*
D03*
X65913Y66040D02*
D03*
Y68580D02*
D03*
X68453Y66040D02*
D03*
Y68580D02*
D03*
X70993Y66040D02*
D03*
Y68580D02*
D03*
X73533Y66040D02*
D03*
Y68580D02*
D03*
X76073Y66040D02*
D03*
Y68580D02*
D03*
X78613Y66040D02*
D03*
Y68580D02*
D03*
X81153Y66040D02*
D03*
Y68580D02*
D03*
X83693Y66040D02*
D03*
Y68580D02*
D03*
X86233Y66040D02*
D03*
Y68580D02*
D03*
X30480Y55753D02*
D03*
X33020D02*
D03*
X30480Y53213D02*
D03*
X33020D02*
D03*
X30480Y50673D02*
D03*
X33020D02*
D03*
X30480Y48133D02*
D03*
X33020D02*
D03*
X30480Y45593D02*
D03*
X33020D02*
D03*
X30480Y43053D02*
D03*
X33020D02*
D03*
X91440Y55753D02*
D03*
X93980D02*
D03*
X91440Y53213D02*
D03*
X93980D02*
D03*
X91440Y50673D02*
D03*
X93980D02*
D03*
X91440Y48133D02*
D03*
X93980D02*
D03*
X91440Y45593D02*
D03*
X93980D02*
D03*
X91440Y43053D02*
D03*
X93980D02*
D03*
D18*
X28560Y28574D02*
D03*
X28574Y70500D02*
D03*
X95884Y28590D02*
D03*
X95885Y70485D02*
D03*
M02*
